 <svg  version="1.0" xmlns="http://www.w3.org/2000/svg"  width="675.000000pt" height="900.000000pt" viewBox="0 0 675.000000 900.000000"  preserveAspectRatio="xMidYMid meet">  <g transform="translate(0.000000,900.000000) scale(0.100000,-0.100000)" fill="#009dff" stroke="none"> <path d="M2010 8988 c0 -6 -7 -20 -17 -30 -9 -10 -21 -28 -28 -41 -8 -16 -18 -21 -40 -19 -17 1 -157 3 -313 3 -247 1 -285 -1 -301 -15 -10 -9 -32 -16 -50 -16 -18 0 -34 -6 -37 -14 -3 -8 -19 -16 -35 -20 -35 -7 -30 -26 7 -26 34 0 30 -17 -6 -25 -16 -4 -32 -10 -35 -15 -3 -5 -39 -26 -81 -46 -41 -21 -80 -44 -86 -51 -6 -7 -15 -13 -20 -13 -12 0 -71 -52 -227 -200 -88 -83 -259 -345 -318 -485 -14 -33 -28 -64 -32 -70 -4 -5 -15 -37 -25 -70 -10 -33 -23 -71 -29 -85 -5 -14 -13 -43 -17 -65 -4 -22 -19 -80 -33 -130 -23 -82 -55 -234 -78 -375 -6 -30 -15 -82 -21 -115 -6 -33 -14 -78 -17 -100 -6 -40 -23 -53 -50 -36 -10 6 -11 13 -2 29 16 30 27 172 13 172 -6 0 -13 -26 -17 -57 -3 -32 -10 -65 -16 -73 -21 -32 -40 -83 -37 -97 6 -31 72 -42 226 -40 81 2 154 2 162 -1 15 -3 68 -78 80 -112 6 -16 115 -234 155 -310 13 -25 29 -51 36 -58 15 -17 30 -75 34 -127 2 -22 9 -58 15 -80 7 -22 12 -53 12 -70 -1 -16 5 -52 13 -80 59 -216 65 -262 65 -508 0 -176 -4 -250 -15 -294 -8 -32 -20 -137 -25 -233 -12 -199 -21 -262 -35 -267 -7 -2 -16 33 -23 84 -21 156 -23 168 -32 188 -5 11 -11 41 -15 67 -3 26 -10 50 -16 53 -5 4 -9 15 -9 25 0 10 -11 31 -24 47 l-24 29 -144 -3 c-78 -1 -149 -3 -156 -3 -8 0 -36 -23 -63 -51 l-49 -51 4 -427 c5 -486 14 -957 24 -1341 l7 -265 65 -1 c36 0 71 -1 79 -2 11 -2 13 -26 7 -140 -5 -89 -3 -147 3 -165 7 -17 13 -207 17 -496 3 -258 9 -493 13 -524 5 -36 4 -60 -3 -67 -6 -6 -60 -10 -128 -10 -106 0 -118 -2 -128 -19 -7 -13 -10 -292 -10 -835 l0 -816 2650 0 2650 0 0 818 c0 660 -3 822 -13 836 -12 16 -29 18 -141 17 l-127 -2 3 28 c3 25 -1 29 -42 40 -25 6 -81 12 -126 12 -74 1 -165 21 -189 42 -5 5 -23 9 -41 9 -17 0 -37 7 -44 15 -7 8 -20 15 -30 15 -10 0 -40 11 -67 23 -65 32 -201 87 -238 96 -16 4 -44 15 -62 24 -18 10 -39 17 -48 17 -8 0 -48 16 -88 36 -89 43 -169 120 -203 194 -14 30 -33 73 -44 95 -17 38 -50 144 -65 210 -4 17 -13 84 -21 150 -18 158 -33 242 -51 287 -9 20 -13 45 -11 56 3 10 -1 27 -8 37 -8 10 -14 37 -14 59 0 23 -7 54 -15 70 -8 16 -14 47 -13 71 0 23 -6 57 -15 75 -10 18 -17 46 -17 61 0 15 -4 49 -9 76 -16 79 -29 170 -46 313 -9 74 -20 164 -26 200 -6 36 -12 93 -14 125 -9 121 -34 290 -44 293 -6 2 -11 14 -11 27 0 12 -7 28 -15 35 -8 7 -15 18 -15 24 0 7 -21 33 -46 58 -53 53 -224 142 -344 178 -41 13 -101 36 -132 51 -32 16 -67 29 -79 29 -13 0 -30 7 -40 16 -9 8 -32 17 -51 19 -18 2 -46 8 -63 14 -16 5 -70 22 -120 37 -49 14 -108 32 -130 39 -22 7 -101 32 -175 54 -74 23 -148 47 -165 53 -16 5 -43 12 -60 15 -16 2 -37 7 -45 10 -8 3 -35 7 -59 9 -69 5 -78 21 -83 147 -3 62 -1 110 5 114 17 10 242 -97 362 -172 39 -25 75 -45 81 -45 6 0 17 -7 24 -15 7 -8 20 -15 30 -15 10 0 23 -7 30 -15 7 -8 20 -15 30 -15 10 0 23 -7 30 -15 7 -8 20 -15 30 -15 10 0 23 -7 30 -15 7 -8 21 -15 31 -15 11 0 27 -4 37 -9 28 -15 255 -31 269 -19 24 20 78 123 103 198 25 73 27 75 64 81 20 3 44 13 53 22 19 18 11 47 -13 47 -10 0 -31 11 -48 24 -21 16 -56 28 -105 35 -54 9 -92 22 -143 52 -67 39 -72 40 -157 40 -48 0 -98 -4 -111 -9 -41 -15 -126 5 -217 51 -164 82 -166 84 -315 209 l-93 77 5 78 c7 110 5 244 -4 344 -11 110 -4 145 39 194 19 22 37 48 41 58 3 9 9 17 14 17 5 0 19 17 31 38 13 20 41 56 62 79 64 69 71 83 94 193 10 49 13 54 25 42 17 -17 48 -15 48 3 0 9 8 19 18 22 9 4 35 19 57 34 22 15 58 37 80 49 22 12 54 30 70 40 76 47 108 61 118 51 7 -7 5 -17 -8 -31 -27 -30 -259 -168 -306 -183 -37 -11 -50 -29 -30 -42 6 -3 21 -29 36 -58 14 -28 35 -68 47 -87 43 -73 78 -143 78 -158 0 -9 6 -23 14 -31 7 -9 31 -47 51 -86 21 -38 48 -88 60 -110 12 -22 37 -67 55 -100 17 -33 38 -67 46 -76 8 -8 14 -18 14 -22 0 -3 12 -25 28 -49 32 -51 41 -66 82 -135 23 -39 46 -61 93 -89 34 -20 85 -54 112 -75 28 -20 88 -57 135 -81 145 -76 240 -129 246 -139 3 -5 18 -9 33 -9 16 0 34 -7 41 -15 7 -8 26 -19 44 -24 62 -19 151 -53 160 -62 6 -5 16 -9 24 -9 8 0 28 -6 45 -14 86 -38 131 -56 146 -56 9 0 25 -7 35 -15 11 -8 30 -15 42 -15 13 0 26 -4 29 -10 3 -5 17 -10 30 -10 13 0 30 -7 39 -15 8 -8 25 -15 39 -15 25 0 102 -23 154 -46 17 -8 35 -14 41 -14 25 0 131 -56 168 -88 100 -89 128 -95 314 -67 19 3 41 2 48 -3 10 -7 13 -257 18 -1208 3 -675 10 -1214 15 -1234 5 -19 9 -60 9 -91 0 -58 -12 -80 -65 -119 -57 -42 -79 -173 -42 -255 29 -65 33 -70 56 -73 24 -4 39 22 23 41 -6 7 -14 51 -18 99 -6 84 -6 87 19 112 45 45 97 34 128 -27 22 -42 21 -54 -6 -126 -17 -47 -13 -91 8 -91 15 0 57 60 57 81 0 8 6 24 14 35 10 13 13 34 10 64 -9 76 -12 85 -54 130 l-40 45 -1 705 c-1 388 -4 968 -8 1290 -3 322 -3 592 1 601 4 9 23 26 43 38 22 13 35 28 35 41 0 12 5 31 11 42 6 12 13 69 15 127 3 102 2 107 -23 132 l-25 27 36 40 c37 41 47 85 22 95 -7 3 -32 1 -55 -5 -25 -6 -46 -7 -50 -2 -5 5 -14 618 -20 1362 -7 745 -15 1360 -18 1368 -11 28 6 64 30 64 50 0 100 -94 95 -179 -4 -71 15 -79 43 -16 16 36 20 65 19 128 -1 45 2 101 5 124 6 33 3 49 -13 75 -33 53 -63 74 -135 93 -57 15 -73 24 -95 54 -15 20 -53 62 -85 94 -50 49 -64 57 -96 57 -72 0 -82 -42 -16 -70 35 -15 57 -37 106 -102 34 -47 77 -92 97 -104 53 -30 53 -57 2 -89 l-40 -26 0 -1417 c1 -1288 -1 -1418 -15 -1428 -10 -8 -38 -10 -75 -7 -43 4 -72 1 -105 -12 -26 -9 -59 -18 -74 -19 -16 -1 -36 -10 -45 -19 -21 -21 -36 -21 -62 -2 -10 8 -34 15 -51 15 -18 0 -50 6 -70 13 -84 30 -109 39 -139 48 -17 5 -62 36 -100 69 -38 33 -74 60 -81 60 -6 0 -13 4 -15 8 -1 4 -28 21 -58 36 -54 28 -125 70 -222 134 -27 17 -56 32 -62 32 -7 0 -21 9 -31 20 -10 11 -23 20 -29 20 -11 0 -137 62 -226 112 -30 17 -90 50 -134 73 -84 44 -91 52 -159 185 -19 36 -58 108 -87 160 -186 332 -290 539 -290 577 0 7 -7 25 -16 38 -9 14 -14 31 -11 39 3 8 0 20 -8 26 -7 6 -16 27 -20 48 -4 20 -18 62 -32 92 -14 30 -34 73 -44 96 -11 23 -19 46 -19 52 0 6 -6 23 -14 39 -8 15 -22 46 -32 68 -9 22 -21 48 -25 57 -5 10 -9 26 -9 36 0 43 -68 78 -163 86 -38 3 -103 12 -145 20 -43 9 -120 22 -172 29 -52 8 -103 17 -112 22 -15 6 -18 2 -18 -21 1 -16 7 -40 15 -54 8 -14 14 -41 15 -60 0 -19 7 -48 15 -64 8 -15 15 -40 15 -55 0 -47 12 -101 21 -95 15 9 10 111 -6 128 -22 22 -19 31 26 91 43 57 47 59 123 49 41 -6 46 -9 46 -33 0 -14 -18 -60 -40 -101 -22 -41 -50 -96 -62 -123 -19 -39 -27 -46 -45 -42 -12 3 -24 1 -28 -4 -3 -5 -1 -78 4 -161 7 -108 7 -159 -1 -178 -6 -15 -12 -49 -12 -77 l-1 -50 -125 0 -125 0 -2 49 c-1 27 -5 57 -9 65 -3 9 -10 84 -14 166 -6 139 -21 221 -52 298 -10 27 -11 27 -25 7 -18 -25 -30 -26 -38 -1 -9 31 5 53 30 47 15 -4 25 -1 29 9 8 22 34 18 47 -7 27 -51 70 -298 74 -433 l4 -110 33 0 c18 0 33 5 33 10 -5 127 -44 399 -71 492 -13 46 -24 92 -24 103 0 19 37 53 50 45 7 -4 30 -84 50 -175 15 -65 50 -347 50 -401 0 -25 -5 -50 -11 -56 -9 -9 -6 -13 14 -18 42 -11 62 -2 60 25 -1 14 -7 72 -13 130 -6 58 -15 146 -20 195 -8 88 -47 256 -76 324 -27 64 -16 111 23 103 26 -5 26 -4 20 42 -12 82 7 133 71 196 159 158 259 284 261 331 1 9 10 26 20 38 11 13 22 28 23 33 2 6 27 13 54 15 43 5 54 2 72 -17 31 -34 56 -23 60 26 3 46 -6 58 -153 209 -39 40 -79 89 -90 109 -18 33 -55 51 -55 26 0 -5 -12 -10 -26 -10 -23 0 -25 2 -14 15 10 13 10 19 -4 34 -13 14 -15 30 -10 79 6 52 4 63 -10 68 -9 3 -16 15 -16 25 0 15 -7 19 -40 19 -24 0 -40 -5 -40 -12z m52 -63 c13 -29 -3 -55 -34 -55 -26 0 -33 26 -14 55 21 32 33 32 48 0z m-622 -64 c19 -6 8 -9 -43 -13 -37 -3 -73 -10 -80 -16 -17 -14 -81 -19 -87 -7 -3 6 13 11 37 13 23 2 47 10 53 18 13 15 76 18 120 5z m536 -30 c5 -5 25 -13 44 -18 44 -12 52 -43 16 -66 -22 -15 -40 -15 -152 -7 -108 8 -137 7 -184 -6 -57 -16 -157 -84 -175 -120 -6 -10 -18 -30 -26 -44 -43 -65 -56 -263 -24 -360 10 -30 31 -75 47 -99 22 -34 26 -46 17 -57 -14 -17 -41 -18 -57 -2 -44 44 -98 -380 -105 -837 -2 -110 -7 -208 -11 -217 -10 -22 33 -35 63 -18 12 6 21 7 22 3 1 -4 2 -23 4 -41 1 -17 9 -39 16 -48 24 -29 -11 -34 -206 -31 l-190 2 -2 57 c-1 56 -1 57 28 60 l29 3 4 175 c9 373 22 505 66 667 47 172 90 268 148 336 29 33 42 57 42 78 0 110 -154 -106 -224 -315 -14 -43 -29 -97 -32 -120 -8 -50 -29 -76 -61 -76 -34 0 -38 23 -18 93 66 230 172 421 280 504 34 25 45 41 43 56 -5 36 -33 26 -105 -39 -70 -62 -150 -180 -206 -304 -34 -73 -87 -227 -87 -250 0 -20 -44 -60 -67 -60 -7 0 -18 11 -23 26 -17 44 114 351 208 489 55 80 161 174 245 216 40 21 57 35 57 49 0 35 -47 23 -133 -34 -96 -64 -139 -103 -205 -188 -86 -111 -125 -179 -220 -388 -12 -25 -27 -67 -34 -93 -15 -59 -58 -113 -81 -104 -32 12 -22 53 63 251 90 210 163 318 311 462 93 90 198 154 250 154 43 0 115 58 95 77 -13 13 -179 -46 -242 -86 -60 -37 -205 -169 -271 -246 -112 -133 -226 -352 -287 -556 -19 -64 -32 -91 -50 -103 -29 -19 -56 -12 -56 15 0 17 41 131 109 309 19 48 109 213 146 268 75 110 262 286 378 354 84 50 195 88 259 88 47 0 98 20 148 60 l25 20 -25 0 c-43 0 -193 -28 -240 -44 -171 -60 -303 -144 -452 -285 -71 -68 -122 -127 -155 -179 -26 -42 -54 -86 -61 -97 -39 -63 -130 -266 -163 -365 -52 -156 -71 -205 -101 -270 -46 -99 -51 -133 -55 -377 l-4 -233 -24 -6 c-52 -13 -60 -4 -58 66 3 126 49 428 88 582 59 230 142 429 266 639 83 141 128 195 279 332 60 53 187 136 280 182 41 20 83 40 93 46 9 5 54 19 100 30 65 17 121 22 270 25 103 1 195 8 205 13 21 13 115 14 128 2z m170 -120 c55 -56 64 -68 64 -84 0 -9 -4 -19 -10 -22 -14 -9 -12 -32 6 -60 14 -21 19 -22 47 -14 18 6 40 14 49 19 13 7 18 5 23 -9 3 -10 17 -23 30 -29 31 -14 32 -30 3 -36 -114 -24 -168 -29 -184 -15 -16 12 -17 12 -11 -5 4 -10 3 -24 -1 -30 -20 -25 -20 -57 -1 -69 44 -27 15 -73 -157 -250 -117 -120 -126 -133 -146 -195 -11 -37 -24 -76 -29 -87 -4 -11 -11 -36 -14 -55 -7 -34 -61 -130 -74 -130 -3 0 -14 -14 -24 -31 -18 -32 -18 -32 -88 -27 -100 8 -128 38 -95 105 8 15 19 62 25 103 5 41 19 115 30 163 18 80 19 92 6 117 -8 16 -19 31 -24 35 -30 18 -81 174 -81 245 0 68 32 195 57 223 45 53 91 94 118 104 79 29 117 37 133 27 29 -19 24 -33 -15 -40 -76 -14 -170 -79 -212 -147 -27 -45 -46 -196 -30 -245 25 -79 34 -97 63 -130 47 -53 112 -81 200 -84 56 -2 79 1 90 12 24 24 3 42 -59 51 -67 9 -109 38 -154 105 -49 74 -39 151 27 201 30 23 46 28 88 27 124 -3 200 -88 174 -195 -14 -58 -4 -79 39 -79 38 0 51 17 51 66 0 35 5 47 30 67 43 36 39 61 -13 86 -24 12 -48 21 -53 21 -5 0 -27 16 -49 36 -42 40 -43 44 -34 167 4 63 16 74 68 62 24 -5 32 -1 51 24 27 39 50 39 86 2z m120 -107 c-3 -8 -10 -14 -16 -14 -11 0 -14 43 -3 54 10 10 26 -23 19 -40z m-382 -16 c-13 -78 -7 -73 -76 -70 -78 3 -127 -22 -178 -91 -23 -31 -36 -42 -38 -32 -7 32 21 86 72 137 56 57 114 85 183 87 l43 1 -6 -32z m3183 -170 c26 -24 31 -66 8 -74 -21 -9 -64 22 -71 51 -12 48 23 61 63 23z m-2844 -19 c-13 -13 -43 -5 -43 10 0 13 33 20 45 9 5 -5 5 -12 -2 -19z m-667 -399 c12 -12 0 -78 -19 -115 -6 -11 -12 -56 -15 -100 -2 -44 -9 -86 -15 -94 -12 -14 -22 -645 -11 -663 3 -5 11 -4 19 2 8 6 47 10 97 8 l83 -3 3 -85 c2 -52 8 -87 15 -92 7 -4 80 -8 164 -8 189 0 187 -2 178 114 -3 44 -11 109 -17 143 l-11 61 56 59 c48 50 95 113 159 211 41 63 58 103 58 137 0 44 13 50 84 35 60 -12 70 -23 101 -105 15 -42 43 -107 95 -220 5 -11 19 -45 30 -75 12 -30 28 -70 37 -89 15 -33 15 -34 -13 -57 -16 -12 -49 -33 -72 -46 -24 -13 -51 -27 -61 -33 -9 -5 -39 -23 -66 -39 -28 -16 -52 -33 -55 -37 -3 -4 -18 -13 -34 -19 -26 -10 -32 -8 -61 20 -29 28 -34 30 -48 16 -11 -11 -14 -27 -10 -49 10 -63 -39 -179 -108 -255 -50 -54 -156 -198 -179 -242 -11 -19 -13 -78 -11 -250 1 -124 5 -235 7 -247 3 -12 2 -29 -3 -38 -8 -14 -14 -12 -49 12 -170 117 -266 177 -376 233 -71 35 -128 70 -128 77 0 6 -43 95 -95 198 -97 190 -200 357 -264 429 -54 61 -94 115 -127 171 -16 27 -34 59 -41 70 -6 11 -18 34 -26 50 -27 58 -60 68 -69 21 -3 -18 -50 -50 -133 -92 -42 -21 -65 -35 -104 -63 -45 -32 -60 -21 -87 60 -35 104 -44 155 -44 236 0 188 47 299 147 343 25 11 50 20 54 20 5 0 28 12 50 26 22 14 51 24 63 22 12 -1 35 6 50 16 17 11 40 16 58 14 16 -3 31 -1 34 4 3 4 34 8 70 8 l65 0 15 -37 c9 -21 29 -48 45 -61 29 -23 29 -25 29 -125 0 -56 -4 -108 -9 -116 -16 -25 -53 10 -90 85 -19 38 -44 83 -55 99 -12 17 -33 51 -46 78 -14 26 -28 47 -31 47 -4 0 -9 -13 -12 -29 -7 -36 -33 -46 -63 -26 -23 15 -24 15 -24 -12 0 -27 70 -169 103 -209 9 -10 36 -47 61 -81 25 -34 65 -76 90 -95 24 -18 46 -40 48 -48 2 -8 1 -78 -2 -155 -6 -143 -3 -168 26 -179 28 -11 428 -18 443 -8 10 7 11 28 6 97 l-8 87 -33 -5 c-27 -5 -34 -2 -35 11 0 9 0 112 0 227 1 237 15 461 36 580 8 44 17 97 20 117 5 35 27 68 44 68 4 0 12 -5 17 -10z m-461 -356 c0 -10 -8 -20 -17 -22 -18 -3 -26 27 -11 42 12 11 28 0 28 -20z m-237 -91 c5 -17 -26 -29 -40 -15 -6 6 -7 15 -3 22 9 14 37 9 43 -7z m1377 -32 c0 -24 -7 -38 -22 -48 -21 -14 -23 -13 -34 11 -10 21 -9 30 5 51 24 37 51 29 51 -14z m-677 -5 c-4 -31 -38 -34 -38 -3 0 29 7 37 27 30 8 -3 13 -15 11 -27z m-640 -63 c-2 -31 -7 -39 -25 -41 -17 -3 -26 4 -33 24 -15 38 -6 54 30 54 30 0 31 -2 28 -37z m728 -29 c18 -5 23 -16 28 -57 3 -29 10 -79 15 -111 14 -87 7 -96 -82 -96 -44 0 -78 5 -85 12 -13 13 -18 239 -5 251 8 8 100 9 129 1z m519 -4 c3 -6 -1 -13 -10 -16 -19 -8 -30 0 -20 15 8 14 22 14 30 1z m-1187 -63 c3 -14 -1 -18 -20 -15 -12 2 -24 11 -26 21 -3 14 1 18 20 15 12 -2 24 -11 26 -21z m1140 -20 c2 -10 -7 -26 -20 -37 -19 -16 -25 -17 -37 -5 -9 8 -11 23 -7 40 5 21 12 26 34 23 16 -2 28 -10 30 -21z m-1070 -22 c34 -73 -12 -132 -51 -66 -23 39 -21 57 5 75 30 21 33 20 46 -9z m582 -205 c14 -26 5 -40 -26 -40 -18 0 -24 5 -24 23 0 41 31 52 50 17z m-827 -75 c7 -17 -19 -37 -118 -91 -165 -90 -205 -101 -189 -52 3 13 7 23 8 23 0 0 17 7 36 16 19 9 46 21 60 27 14 6 57 29 95 51 76 43 100 49 108 26z m137 -218 c0 -13 -25 -32 -85 -62 -27 -14 -57 -29 -65 -34 -120 -73 -160 -89 -160 -65 0 15 48 63 62 64 4 0 47 24 95 53 49 30 95 56 103 59 20 7 50 -2 50 -15z m1650 3 c0 -11 -7 -20 -15 -20 -15 0 -21 21 -8 33 12 13 23 7 23 -13z m-40 -31 c0 -24 -39 -41 -59 -26 -11 9 -8 16 14 34 29 25 45 23 45 -8z m240 -9 c0 -16 -12 -40 -21 -40 -5 0 -28 -13 -51 -29 -135 -89 -188 -121 -209 -123 -42 -5 -31 25 21 62 28 19 56 40 63 46 7 6 48 31 91 57 70 41 106 50 106 27z m-1753 -97 c32 -49 63 -97 69 -108 6 -11 34 -62 63 -114 86 -153 136 -253 149 -298 15 -51 35 -66 183 -136 63 -30 152 -80 199 -112 179 -123 198 -135 210 -135 7 0 49 -36 94 -79 44 -43 101 -90 126 -104 25 -14 46 -33 48 -44 3 -21 -71 -184 -92 -202 -10 -8 -20 -8 -42 4 -16 8 -35 15 -41 15 -7 0 -43 15 -80 34 -38 19 -116 52 -174 74 -148 56 -361 163 -444 225 -93 69 -182 158 -231 232 -21 33 -43 64 -47 70 -4 5 -30 42 -57 80 -27 39 -53 75 -58 81 -44 51 -89 118 -109 164 -45 101 -58 125 -100 188 -47 69 -52 89 -25 99 9 4 35 18 57 32 22 14 60 36 85 48 63 33 90 49 103 62 6 6 21 11 34 11 17 0 36 -20 80 -87z m1805 -11 c9 -20 27 -59 39 -87 18 -41 55 -107 109 -195 5 -8 29 -55 54 -105 99 -195 112 -211 198 -255 31 -16 65 -33 75 -39 10 -5 25 -12 33 -16 8 -3 42 -21 75 -40 33 -18 103 -56 155 -83 114 -60 145 -77 286 -163 60 -36 126 -74 147 -85 49 -25 146 -101 154 -120 3 -8 -2 -43 -11 -77 -9 -34 -20 -75 -23 -90 -8 -40 -24 -43 -85 -14 -30 14 -67 29 -83 33 -17 4 -34 10 -40 13 -5 4 -37 17 -70 30 -60 23 -69 26 -135 55 -19 8 -75 31 -125 51 -136 56 -149 62 -227 109 -40 23 -104 57 -143 75 -38 18 -121 68 -183 109 -103 70 -118 84 -166 157 -29 44 -64 100 -77 124 -32 58 -43 76 -56 92 -9 13 -28 46 -94 167 -13 24 -38 69 -56 100 -57 101 -58 102 -47 120 12 19 183 140 200 141 6 1 17 8 24 16 23 27 54 18 72 -23z m-1923 -609 c173 -259 190 -279 325 -385 105 -82 333 -199 531 -272 72 -27 136 -53 143 -59 7 -5 12 -32 12 -63 0 -61 -11 -69 -75 -54 -22 5 -71 10 -109 10 -90 0 -331 55 -360 81 -6 5 -16 9 -24 9 -8 0 -28 6 -45 14 -83 38 -126 56 -133 56 -20 0 -148 97 -202 153 l-62 65 0 63 c0 34 -4 76 -9 93 -13 42 -31 121 -40 181 -5 28 -15 71 -24 95 -8 25 -17 62 -21 83 -12 65 16 44 93 -70z m1325 -569 c-1 -16 -18 -64 -38 -106 -27 -59 -41 -78 -56 -78 -11 0 -20 3 -20 8 0 16 27 83 38 94 7 7 12 16 12 22 0 5 10 29 21 53 23 48 45 52 43 7z m-1283 0 c27 -30 164 -134 176 -134 4 -1 26 -9 48 -20 22 -11 46 -19 53 -20 7 0 20 -4 30 -10 9 -5 40 -19 67 -30 28 -12 59 -25 70 -30 70 -32 269 -70 365 -70 47 0 102 -3 123 -7 37 -6 38 -7 35 -42 l-3 -36 -100 3 c-55 2 -120 7 -145 13 -25 5 -94 13 -155 19 -144 11 -209 28 -405 100 -47 18 -98 36 -115 42 -16 5 -44 17 -62 26 l-32 16 -3 103 c-3 88 -1 103 13 103 8 0 26 -12 40 -26z m3269 -125 c-23 -84 -40 -119 -57 -119 -18 0 -17 69 2 94 8 11 15 35 15 54 0 23 7 40 23 52 21 17 22 17 29 1 3 -10 -2 -47 -12 -82z m789 82 c36 -23 -34 -45 -189 -57 -128 -10 -180 -53 -180 -146 0 -76 78 -159 168 -179 29 -6 54 -15 58 -20 11 -19 -39 -24 -139 -16 -99 8 -104 10 -170 55 -78 53 -87 65 -81 107 9 53 37 170 44 178 4 4 43 17 87 28 44 10 96 25 114 33 19 7 61 14 93 15 33 0 62 3 64 6 9 9 116 5 131 -4z m-2571 -49 c2 -12 -4 -32 -12 -44 -9 -12 -16 -30 -16 -39 0 -10 -7 -30 -14 -46 -8 -15 -17 -36 -20 -45 -5 -18 -46 -26 -46 -10 0 5 9 35 21 68 11 32 23 69 26 82 3 12 9 22 13 22 5 0 12 9 15 21 8 25 29 20 33 -9z m236 -12 c120 0 128 -1 179 -29 32 -17 78 -32 113 -36 32 -4 75 -14 94 -22 34 -15 35 -15 12 -26 -17 -8 -36 -7 -72 2 -54 14 -70 10 -70 -19 0 -14 10 -21 35 -26 31 -6 35 -9 34 -38 0 -17 -11 -51 -24 -76 -13 -25 -29 -57 -36 -73 -12 -31 -43 -42 -92 -33 -17 3 -63 10 -101 15 -37 6 -73 15 -80 20 -6 4 -22 12 -36 16 -14 4 -32 13 -40 19 -8 7 -35 21 -60 31 -140 57 -139 56 -110 122 11 25 20 50 20 55 0 5 9 29 20 53 23 50 46 68 72 54 9 -5 73 -9 142 -9z m1802 -4 c3 -8 -2 -35 -10 -60 -9 -26 -16 -62 -16 -80 0 -38 -30 -83 -48 -72 -16 10 -15 53 4 128 21 81 55 123 70 84z m525 -37 c22 -11 24 -38 16 -209 l-2 -35 -60 1 c-149 2 -212 29 -249 109 -15 30 -15 38 -2 68 8 19 19 38 25 41 13 8 173 34 219 35 18 1 42 -4 53 -10z m-671 -59 c0 -11 -4 -20 -9 -20 -14 0 -23 18 -16 30 10 17 25 11 25 -10z m-3357 -76 c69 -28 125 -47 272 -93 107 -33 402 -73 630 -86 66 -4 138 -13 160 -21 22 -7 58 -17 80 -23 22 -5 90 -24 150 -41 61 -18 133 -38 160 -46 80 -22 146 -41 210 -62 111 -36 260 -81 310 -95 56 -14 65 -30 42 -80 -8 -18 -29 -72 -47 -122 -18 -49 -36 -99 -41 -110 -4 -11 -26 -75 -48 -143 -22 -67 -45 -131 -51 -142 -10 -19 -19 -20 -383 -15 -204 3 -544 7 -754 9 -441 4 -418 0 -571 115 -89 67 -126 110 -214 250 l-58 91 0 89 c0 49 5 102 11 118 10 24 24 132 45 358 9 88 6 87 97 49z m-392 -339 c17 -621 22 -755 33 -764 6 -4 232 -11 501 -15 270 -4 746 -11 1060 -15 314 -5 595 -5 625 -1 86 12 85 15 86 -167 2 -641 8 -1267 15 -1478 4 -137 9 -365 10 -505 l2 -255 -78 -3 c-43 -2 -82 1 -86 5 -7 7 -18 663 -33 1943 l-4 295 -1047 1 -1048 1 7 -86 c3 -47 11 -421 16 -831 6 -410 14 -873 19 -1030 6 -156 7 -288 5 -292 -6 -10 -155 -10 -169 0 -6 4 -10 100 -11 247 -2 466 -15 1051 -26 1105 -22 113 -26 204 -27 544 -1 192 -6 449 -11 570 -14 332 -24 942 -16 955 5 8 35 11 89 9 l82 -3 6 -230z m-241 -10 c6 -44 15 -402 21 -795 5 -393 11 -759 14 -812 3 -80 1 -98 -11 -98 -8 0 -15 6 -15 13 -5 50 -7 130 -13 587 -4 283 -11 557 -16 610 -11 121 -14 646 -3 663 5 7 9 -8 11 -38 1 -27 7 -86 12 -130z m343 -62 c7 -45 18 -88 24 -95 6 -7 18 -38 28 -68 17 -51 34 -87 110 -224 31 -55 105 -154 116 -155 14 -2 119 -74 119 -82 0 -5 -97 -9 -215 -9 l-215 0 1 398 c1 240 5 381 10 357 4 -22 14 -77 22 -122z m2432 -122 c3 -5 19 -12 35 -16 113 -25 360 -168 360 -209 0 -6 6 -22 13 -36 31 -61 46 -122 51 -215 2 -55 9 -125 15 -155 13 -70 31 -212 41 -315 4 -44 12 -107 18 -140 10 -55 20 -115 42 -253 5 -29 13 -74 19 -100 5 -26 17 -83 27 -127 9 -44 21 -96 26 -115 32 -121 48 -208 77 -445 5 -34 13 -70 19 -82 7 -12 12 -31 12 -43 0 -12 6 -36 14 -53 7 -18 21 -54 31 -82 45 -127 83 -183 187 -271 44 -38 244 -124 286 -124 7 0 40 -14 74 -30 33 -17 67 -30 75 -30 8 0 48 -16 90 -36 41 -20 96 -42 121 -49 26 -8 80 -23 119 -34 47 -14 102 -21 155 -21 78 0 122 -10 101 -23 -12 -8 -1436 -3 -1448 5 -7 4 -8 35 -4 90 4 46 3 103 -2 128 -5 25 -12 65 -15 90 -7 49 -87 296 -113 348 -21 40 -71 152 -71 158 0 3 -7 22 -16 42 -36 84 -60 130 -94 187 -19 33 -44 80 -55 105 -10 25 -25 52 -32 61 -7 8 -13 22 -13 30 0 9 -7 24 -15 35 -8 10 -15 25 -15 32 0 13 -9 37 -45 117 -13 30 -29 102 -45 200 -5 28 -13 64 -18 80 -6 17 -13 56 -16 89 -4 32 -11 66 -16 77 -6 10 -12 123 -14 251 -3 141 -9 246 -16 266 -13 35 -19 37 -114 47 -96 11 -100 15 -68 88 10 23 26 60 34 82 9 22 23 58 32 80 8 22 23 65 32 95 9 30 27 84 39 120 13 36 26 75 30 88 5 16 14 22 35 22 16 0 31 -4 35 -9z m-115 -621 c11 -7 16 -54 22 -237 4 -125 12 -253 17 -283 5 -30 15 -93 23 -140 8 -47 18 -91 22 -98 4 -7 9 -41 11 -76 1 -34 7 -71 13 -82 6 -10 18 -45 27 -76 9 -31 23 -62 31 -69 8 -6 14 -18 14 -25 0 -21 86 -205 141 -299 28 -50 32 -57 43 -85 3 -8 10 -22 15 -30 5 -8 16 -32 25 -52 9 -21 22 -53 30 -70 8 -18 24 -55 36 -83 12 -27 25 -59 30 -70 19 -41 42 -111 43 -132 1 -12 8 -28 15 -35 6 -6 12 -27 12 -44 0 -18 5 -36 10 -39 6 -3 10 -24 10 -45 0 -21 4 -50 10 -65 5 -14 11 -76 12 -138 l3 -112 -305 -3 c-168 -1 -315 0 -326 3 -21 5 -22 8 -22 267 0 586 -13 1793 -21 1943 -6 108 -6 164 1 173 12 14 37 15 58 2z m-1294 -224 c881 -1 893 -2 878 -40 -2 -6 7 -22 21 -34 l25 -22 2 -347 c1 -192 1 -433 1 -538 -1 -104 -2 -199 -2 -210 0 -39 7 -151 13 -217 3 -36 7 -203 7 -369 l2 -303 -27 -22 -26 -23 -890 5 c-693 4 -898 8 -928 18 l-37 13 -3 104 c-1 57 -2 149 -2 204 0 55 0 125 -1 155 -3 134 -3 240 0 300 2 36 -3 94 -10 129 -12 57 -12 64 4 76 18 13 24 74 8 90 -5 6 -13 82 -16 170 -9 188 -8 138 -6 458 1 181 -1 263 -9 272 -15 18 -5 34 26 45 20 8 24 16 24 49 0 44 13 53 65 43 17 -3 413 -6 881 -6z m3694 -2237 c2 -162 -1 -1573 -3 -1575 -6 -7 -5148 -5 -5158 2 -14 9 -12 1557 3 1572 14 14 5158 16 5158 1z"/> <path d="M1388 8133 c-38 -45 -119 -283 -133 -388 -3 -28 -10 -77 -16 -110 -5 -33 -13 -185 -18 -337 -5 -185 -12 -282 -20 -292 -14 -17 5 -26 57 -26 l37 0 2 173 c3 256 20 575 33 637 23 111 52 205 80 259 20 42 25 62 19 79 -10 27 -21 28 -41 5z"/> <path d="M2045 8616 c-27 -20 -27 -90 0 -110 26 -20 45 -19 74 3 65 50 -8 155 -74 107z"/> <path d="M1930 1215 c-69 -38 -133 -67 -205 -91 -92 -30 -103 -37 -86 -58 9 -11 26 -13 67 -9 95 10 92 20 88 -313 -1 -156 -5 -293 -9 -304 -7 -23 -36 -34 -95 -35 -41 0 -45 -2 -48 -26 -3 -23 1 -27 30 -32 18 -4 80 -3 138 1 58 4 125 5 150 1 25 -5 69 -8 98 -8 49 -1 53 1 50 20 -4 26 -20 36 -70 44 -24 4 -42 14 -49 27 -8 14 -11 136 -10 398 2 409 1 413 -49 385z"/> <path d="M3335 1220 c-155 -27 -312 -145 -380 -283 -44 -90 -58 -166 -53 -282 3 -73 9 -100 32 -145 105 -209 338 -239 459 -59 92 137 58 342 -69 417 -35 21 -48 23 -136 19 -77 -4 -98 -2 -98 8 0 27 105 170 135 184 17 8 35 20 40 27 9 11 41 23 144 53 30 9 46 33 38 55 -7 17 -40 19 -112 6z m-140 -410 c50 -31 65 -87 65 -241 l0 -127 -31 -26 c-17 -14 -36 -26 -43 -26 -23 0 -66 52 -77 94 -30 110 -40 330 -16 339 28 12 72 6 102 -13z"/> <path d="M2389 1191 c-117 -73 -175 -227 -134 -353 44 -136 163 -208 271 -163 20 8 40 12 45 9 28 -17 -9 -104 -74 -173 -57 -59 -102 -86 -186 -111 -39 -12 -74 -26 -77 -31 -11 -18 19 -39 55 -39 46 1 84 10 186 47 6 2 24 12 40 23 17 11 40 24 52 29 37 17 132 119 158 171 50 100 59 138 59 270 1 121 0 127 -29 180 -62 111 -150 170 -258 170 -52 0 -71 -5 -108 -29z m158 -53 c36 -39 53 -124 53 -262 0 -117 -1 -126 -21 -137 -29 -15 -81 -3 -108 25 -49 52 -68 308 -27 371 22 33 74 34 103 3z"/> <path d="M3695 1203 c-105 -56 -156 -140 -163 -268 -4 -75 -2 -84 30 -145 28 -54 43 -71 88 -97 61 -37 113 -42 161 -17 67 34 75 -17 17 -108 -55 -87 -124 -137 -240 -172 -65 -20 -76 -30 -57 -52 10 -13 25 -15 70 -10 62 7 153 36 172 55 6 6 19 11 28 11 9 0 22 7 29 15 7 8 18 15 24 15 6 0 39 28 73 62 154 158 200 391 110 561 -32 62 -87 116 -149 148 -47 24 -150 25 -193 2z m134 -60 c36 -30 61 -145 61 -278 l0 -115 -27 -11 c-18 -7 -41 -8 -63 -2 -29 6 -39 17 -60 58 -21 42 -25 68 -28 158 -5 120 2 169 24 192 21 20 67 19 93 -2z"/> <path d="M1080 8795 c-7 -8 -19 -15 -27 -15 -24 0 -68 -30 -89 -61 -10 -16 -24 -29 -30 -29 -6 0 -21 -11 -34 -25 -13 -14 -19 -25 -14 -25 19 0 64 25 64 36 0 6 17 19 38 30 20 10 41 25 45 32 4 6 17 12 28 12 11 0 22 7 25 15 4 9 19 15 35 15 19 0 29 5 29 15 0 10 -10 15 -29 15 -16 0 -34 -7 -41 -15z"/> <path d="M743 8537 c-51 -51 -93 -96 -93 -100 0 -4 -27 -33 -60 -64 -38 -37 -60 -66 -60 -80 0 -13 -4 -23 -9 -23 -5 0 -14 -13 -20 -30 -5 -16 -15 -30 -20 -30 -6 0 -11 -6 -11 -14 0 -8 -7 -16 -15 -20 -8 -3 -15 -12 -15 -19 0 -8 -7 -20 -15 -27 -8 -7 -15 -25 -15 -40 0 -16 -7 -30 -15 -34 -18 -7 -21 -60 -2 -54 6 3 14 15 15 29 2 13 10 28 18 32 8 4 14 16 14 25 0 10 5 23 11 29 12 12 33 46 48 80 5 11 15 24 20 28 6 3 11 15 11 26 0 10 4 19 8 19 8 0 82 95 82 105 0 6 38 45 45 45 9 0 45 40 45 50 0 6 7 10 15 10 8 0 15 5 15 11 0 12 71 82 108 106 26 18 29 33 5 33 -10 0 -60 -42 -110 -93z"/> <path d="M3583 8521 c-43 -20 -58 -40 -99 -136 l-22 -50 -94 0 c-77 0 -98 -3 -120 -20 -31 -23 -58 -72 -58 -107 0 -29 41 -116 67 -143 31 -32 34 -51 11 -77 -94 -107 -99 -216 -11 -268 27 -16 52 -20 119 -20 l84 0 31 -65 c52 -111 112 -150 186 -120 38 16 121 118 125 154 3 25 5 26 99 31 97 5 106 9 156 55 17 17 22 32 21 73 0 29 -4 54 -9 57 -4 3 -17 25 -27 48 -10 23 -26 48 -35 56 -25 20 -21 44 13 76 17 16 30 39 30 52 0 13 7 26 15 29 11 4 15 21 15 58 0 48 -3 55 -41 91 l-40 40 -87 1 c-116 2 -112 1 -112 22 0 32 -32 85 -81 134 -54 54 -72 57 -136 29z m113 -83 c16 -18 39 -47 51 -64 20 -29 20 -33 7 -53 -8 -11 -26 -21 -39 -21 -13 0 -27 -4 -30 -10 -3 -5 -26 -10 -50 -10 -24 0 -47 5 -50 10 -3 6 -19 10 -35 10 -40 0 -45 25 -14 77 38 65 54 77 125 92 3 0 18 -14 35 -31z m-262 -217 c-5 -43 -14 -71 -33 -95 -32 -42 -76 -63 -95 -47 -24 20 -46 77 -46 120 0 53 24 78 87 86 26 3 55 7 63 9 27 5 31 -10 24 -73z m558 30 c32 -36 32 -39 0 -131 -16 -46 -23 -56 -45 -58 -15 -2 -27 0 -27 5 0 5 -20 29 -44 54 -41 43 -44 50 -44 100 0 30 2 58 5 63 3 4 33 6 66 4 53 -4 64 -9 89 -37z m-447 19 c22 -8 24 -13 15 -29 -11 -22 -68 -53 -81 -45 -15 9 -10 51 7 68 18 19 24 19 59 6z m253 -28 c6 -41 -4 -54 -30 -40 -72 40 -79 71 -15 66 35 -3 43 -7 45 -26z m-121 -27 c17 -9 36 -22 43 -30 7 -8 18 -15 25 -15 8 0 27 -14 44 -31 30 -29 31 -34 31 -112 0 -64 -4 -89 -20 -114 -11 -18 -25 -33 -31 -33 -6 0 -28 -13 -48 -29 -53 -43 -112 -45 -157 -6 -15 13 -41 29 -55 36 -45 18 -58 61 -50 160 8 87 14 109 33 109 5 0 27 13 47 28 37 29 78 50 97 51 6 1 25 -6 41 -14z m-259 -198 c3 -41 1 -47 -17 -47 -36 0 -54 56 -28 88 22 27 42 9 45 -41z m484 36 c10 -9 18 -23 18 -31 0 -22 -30 -52 -52 -52 -15 0 -18 8 -18 50 0 55 16 65 52 33z m78 -105 c27 -72 35 -130 21 -156 -20 -37 -146 -57 -170 -28 -9 10 -9 16 -1 21 7 4 9 21 6 44 -6 33 -2 40 44 88 45 47 63 60 82 62 3 1 12 -14 18 -31z m-597 -22 c44 -43 46 -46 49 -113 l3 -68 -55 4 c-61 4 -104 21 -114 46 -20 53 18 175 55 175 8 0 36 -20 62 -44z m142 -98 c41 -27 46 -55 11 -64 -36 -9 -66 12 -66 45 0 25 7 41 17 41 2 0 19 -10 38 -22z m273 -18 c4 -37 -9 -50 -51 -50 -43 0 -46 28 -6 61 41 35 53 32 57 -11z m-96 -71 c9 -5 26 -9 37 -9 31 0 35 -19 12 -51 -11 -15 -21 -32 -21 -37 0 -4 -14 -23 -31 -40 -55 -56 -112 -37 -163 54 -32 57 -33 74 -3 74 12 1 33 7 46 14 25 14 91 11 123 -5z"/> <path d="M3612 8088 c-7 -7 -12 -18 -12 -25 0 -7 -8 -17 -19 -22 -51 -28 -10 -101 57 -101 38 0 82 37 82 70 0 65 -70 116 -108 78z"/> <path d="M5202 8135 c-28 -61 1 -135 53 -135 16 0 45 -9 63 -20 32 -19 32 -21 32 -97 0 -43 3 -88 6 -100 9 -31 -25 -59 -89 -74 -64 -14 -80 -37 -75 -109 4 -58 23 -69 79 -43 101 46 121 53 139 53 10 0 31 6 47 14 15 8 51 21 78 29 161 48 264 82 295 98 34 17 35 19 38 86 4 84 -3 113 -27 113 -10 0 -32 7 -49 16 -18 8 -36 13 -42 9 -5 -3 -23 1 -39 10 -17 8 -39 15 -49 15 -11 0 -25 7 -32 15 -7 8 -22 15 -34 15 -12 0 -53 13 -91 30 -39 16 -78 30 -88 30 -11 0 -31 6 -45 14 -38 20 -132 56 -147 56 -6 0 -17 -11 -23 -25z m322 -210 c11 -8 30 -15 42 -15 13 0 25 -4 28 -9 3 -5 26 -12 51 -16 43 -6 46 -8 43 -33 -3 -24 -8 -28 -51 -34 -27 -3 -54 -11 -60 -16 -19 -14 -104 -35 -116 -27 -12 7 -16 147 -4 158 11 12 47 7 67 -8z"/> <path d="M354 7965 c-3 -14 -4 -28 -1 -31 10 -10 27 7 27 26 0 30 -19 33 -26 5z"/> <path d="M326 7901 c-4 -5 -3 -17 0 -26 5 -13 8 -14 15 -3 5 7 9 19 9 26 0 14 -16 16 -24 3z"/> <path d="M296 7828 c-2 -7 -11 -36 -20 -65 -9 -28 -16 -58 -16 -66 0 -8 -7 -20 -15 -27 -8 -7 -15 -27 -15 -44 -1 -17 -7 -42 -15 -56 -8 -14 -14 -36 -15 -50 0 -15 -5 -31 -10 -36 -26 -26 -65 -312 -46 -331 12 -12 18 7 23 74 3 37 10 73 14 79 5 6 12 40 15 75 4 35 13 73 20 84 8 11 14 34 14 51 0 17 7 37 15 44 8 7 15 29 15 49 0 20 7 45 15 55 8 11 15 36 15 57 0 24 5 39 15 43 9 3 15 19 15 41 0 33 -16 49 -24 23z"/> <path d="M5395 7501 c-74 -25 -109 -46 -146 -90 -41 -47 -74 -152 -66 -208 18 -129 43 -167 119 -176 51 -7 52 -6 62 36 5 20 3 27 -8 27 -16 0 -56 76 -56 107 0 27 27 93 48 117 36 39 87 56 174 56 96 0 145 -18 196 -70 28 -30 32 -40 32 -88 0 -44 -6 -65 -31 -105 -16 -27 -28 -55 -25 -62 2 -7 26 -15 53 -18 55 -6 80 10 108 70 25 52 24 176 -2 233 -23 52 -84 120 -128 143 -91 49 -233 61 -330 28z"/> <path d="M5500 6971 c-27 -15 -89 -22 -108 -12 -15 8 -24 5 -42 -14 -13 -14 -29 -25 -36 -25 -23 0 -101 -99 -118 -149 -31 -95 -12 -215 43 -274 22 -24 32 -27 71 -25 43 3 45 5 48 36 2 17 -1 32 -6 32 -30 0 -67 140 -42 155 6 3 10 15 10 25 0 23 71 80 100 80 13 0 40 5 60 11 31 9 44 9 70 -4 19 -10 43 -14 61 -10 34 6 98 -30 125 -72 24 -37 15 -119 -19 -173 -35 -54 -25 -82 29 -82 88 0 130 65 127 196 -1 62 -7 93 -23 124 -27 52 -105 130 -131 130 -12 0 -23 10 -29 25 -8 22 -12 24 -29 13 -15 -9 -30 -8 -71 5 -59 19 -69 20 -90 8z"/> <path d="M5204 6373 c-22 -22 -25 -67 -9 -107 l16 -38 77 7 c42 3 95 8 118 11 51 6 69 -11 59 -56 -8 -35 -45 -80 -66 -80 -8 0 -23 -6 -34 -14 -11 -7 -31 -16 -45 -19 -51 -11 -104 -35 -117 -53 -17 -23 -17 -95 0 -118 10 -14 21 -17 45 -12 17 4 36 14 43 22 6 8 22 14 34 14 12 0 28 7 35 15 7 8 20 15 30 15 9 0 38 18 63 41 l47 40 22 -25 c83 -90 73 -84 145 -88 89 -4 131 21 171 101 24 51 27 68 30 186 2 96 0 135 -10 148 -12 16 -39 18 -327 20 -239 1 -318 -1 -327 -10z m546 -140 c2 -2 3 -29 2 -61 -3 -76 -27 -102 -94 -102 -40 0 -50 4 -64 26 -22 32 -35 113 -23 136 8 15 20 17 92 11 45 -3 84 -8 87 -10z"/> <path d="M5520 5800 c-162 -3 -301 -9 -307 -13 -10 -6 -13 -55 -13 -187 0 -98 3 -185 6 -194 4 -11 19 -16 45 -16 55 0 63 20 54 144 -8 127 -5 132 98 127 41 -1 75 -8 79 -14 4 -7 5 -53 2 -103 l-7 -90 33 -14 c22 -9 40 -10 58 -4 l27 10 -3 101 c-3 120 -1 123 93 114 l60 -6 5 -125 5 -124 32 -10 c25 -7 38 -5 58 8 l25 16 -1 173 c0 160 -2 174 -21 195 -12 12 -24 21 -27 20 -3 -1 -139 -5 -301 -8z"/> <path d="M5210 5285 c-8 -10 -11 -60 -8 -177 l3 -163 40 -61 c31 -48 53 -69 100 -95 59 -33 63 -34 180 -34 148 0 183 11 251 81 74 76 94 140 94 303 -1 89 -5 131 -14 144 -12 16 -40 17 -323 17 -260 0 -313 -2 -323 -15z m353 -135 l187 0 0 -52 c-1 -75 -34 -142 -84 -167 -63 -33 -140 -46 -185 -33 -21 7 -48 12 -59 12 -28 0 -102 71 -102 98 0 11 -4 24 -10 27 -5 3 -10 28 -10 55 0 53 18 74 55 65 11 -3 104 -5 208 -5z"/> <path d="M5760 4649 c-30 -5 -167 -8 -304 -7 -280 3 -264 8 -265 -75 -2 -81 -20 -77 337 -77 234 0 321 3 330 12 13 13 16 76 6 127 -7 34 -10 35 -104 20z"/> <path d="M5748 4418 c-1 -7 -2 -47 -2 -88 l-1 -75 -268 -1 c-147 -1 -270 -4 -273 -7 -13 -13 -16 -89 -4 -118 13 -30 15 -31 64 -25 85 9 460 11 475 2 10 -7 12 -25 8 -75 -6 -79 2 -98 49 -107 68 -13 69 -7 69 263 l0 238 -57 3 c-42 2 -58 -1 -60 -10z"/> <path d="M5206 3848 c-3 -7 -7 -92 -9 -188 -6 -182 -3 -198 36 -213 50 -19 89 22 76 78 -12 53 -10 173 3 181 22 14 168 15 170 1 1 -6 2 -55 3 -107 0 -94 0 -94 28 -104 17 -6 37 -6 55 0 l27 10 0 104 0 105 75 0 75 0 5 -125 5 -125 34 -3 c19 -2 44 -1 56 2 23 6 23 6 21 187 -2 165 -3 182 -21 195 -26 19 -634 21 -639 2z"/> <path d="M5303 3352 c-76 -2 -94 -6 -101 -20 -5 -9 -6 -87 -2 -172 8 -178 19 -212 92 -275 72 -62 117 -76 243 -77 92 -1 117 3 157 21 58 27 131 107 153 169 22 59 30 311 12 336 -10 13 -47 16 -237 18 -124 2 -267 2 -317 0z m445 -207 c3 -77 -24 -128 -88 -164 -39 -22 -57 -25 -135 -25 -98 0 -157 21 -183 64 -28 45 -52 140 -42 164 l9 24 218 -2 218 -1 3 -60z"/> <path d="M5255 2668 c-16 -4 -36 -6 -43 -3 -20 7 -82 -47 -82 -71 0 -41 25 -49 80 -25 46 20 52 20 85 7 32 -14 35 -19 35 -54 0 -44 -22 -78 -114 -177 -63 -68 -83 -113 -66 -145 10 -18 21 -20 135 -22 69 -1 135 -2 146 -2 33 -1 45 25 29 64 l-13 32 -56 -8 c-139 -19 -151 -4 -62 81 97 92 130 180 98 258 -20 48 -111 82 -172 65z"/> <path d="M5646 2673 c-34 -5 -77 -46 -94 -88 -6 -16 -16 -61 -22 -99 -6 -37 -11 -71 -12 -75 -1 -3 4 -39 11 -80 11 -63 19 -80 51 -115 38 -40 38 -40 111 -40 l73 1 37 43 c48 56 64 114 63 225 -2 148 -47 214 -154 228 -19 3 -48 3 -64 0z m98 -106 c42 -56 32 -268 -14 -304 -22 -18 -65 -16 -82 5 -28 31 -38 144 -22 249 12 81 75 108 118 50z"/> <path d="M6473 2671 c-51 -7 -107 -56 -134 -116 -25 -55 -27 -250 -3 -298 30 -60 61 -76 140 -77 66 0 73 2 107 33 41 36 77 100 77 136 0 27 -34 87 -65 114 -17 15 -33 17 -102 13 -91 -5 -99 0 -78 51 22 51 58 68 145 68 74 0 75 0 78 27 2 18 -3 30 -15 36 -26 14 -101 21 -150 13z m57 -273 c30 -32 34 -61 15 -101 -39 -83 -124 -59 -139 40 -5 37 -3 44 20 62 35 27 78 27 104 -1z"/> <path d="M6015 2639 c-57 -35 -75 -55 -75 -81 0 -28 27 -33 65 -12 19 10 37 15 41 11 9 -8 8 -273 -1 -287 -4 -6 -20 -8 -39 -5 -43 9 -74 -23 -60 -62 l9 -27 139 1 c143 1 155 5 156 44 0 21 -36 53 -49 44 -6 -3 -21 -3 -32 0 -21 7 -22 11 -18 204 l4 196 -45 3 c-36 2 -55 -4 -95 -29z"/> </g> </svg> 